<?xml version="1.0" encoding="UTF-8"?>
<!-- Generator: visioncortex VTracer 0.6.4 -->
<svg version="1.1" xmlns="http://www.w3.org/2000/svg" width="1024" height="1024">
<path d="M0,0 L1024,0 L1024,1024 L0,1024 Z " fill="#C5C3C0" transform="translate(0,0)"/>
<path d="M0,0 L1,0 L1,685 L-13,688 L-18,689 L-26,690 L-26,687 L-25,685 L-32,686 L-74,685 L-74,684 L-21,683 L-19,682 L0,683 L-1,672 L-1,31 Z M-16,687 Z " fill="#A3A29D" transform="translate(132,205)"/>
<path d="M0,0 L2,0 L2,2 L5,3 L9,8 L9,10 L11,10 L25,30 L37,52 L45,73 L51,96 L53,109 L54,126 L54,395 L53,790 L52,790 L51,120 L47,91 L40,67 L32,49 L22,30 L12,16 L3,5 L0,2 Z " fill="#ABAAA4" transform="translate(915,91)"/>
<path d="M0,0 L1,0 L1,27 L0,46 L-1,50 L-24,50 L-22,46 L-14,30 L-6,10 L-1,1 Z " fill="#AAA8A2" transform="translate(359,655)"/>
<path d="M0,0 L1,0 L1,222 L-13,225 L-18,226 L-26,227 L-26,224 L-25,222 L-32,223 L-74,222 L-74,221 L-21,220 L-19,219 L0,220 L-1,209 L-1,1 Z M-16,224 Z " fill="#A7A6A1" transform="translate(132,668)"/>
<path d="M0,0 L58,0 L58,2 L45,4 L39,4 L36,5 L33,5 L30,6 L23,5 L18,3 L3,3 L0,2 Z " fill="#9C9992" transform="translate(290,784)"/>
<path d="M0,0 L10,3 L20,5 L16,7 L9,8 L-20,8 L-18,5 L-2,2 Z " fill="#908D86" transform="translate(306,704)"/>
<path d="M0,0 L20,1 L18,2 L18,4 L7,6 L2,7 L-6,8 L-6,5 L-5,3 L-12,4 L-54,3 L-54,2 L-1,1 Z M4,5 Z " fill="#838079" transform="translate(112,887)"/>
<path d="M0,0 L2,2 L-2,4 L21,5 L21,77 L20,77 L20,6 L-16,6 L-16,4 Z " fill="#BEBDB8" transform="translate(328,708)"/>
<path d="M0,0 L2,1 L1,8 L-6,19 L-14,30 L-23,50 L-27,59 L-28,56 L-18,32 L-9,18 L-2,9 Z " fill="#CACAC6" transform="translate(371,629)"/>
<path d="M0,0 L15,0 L29,1 L34,2 L34,3 L26,4 L2,5 L0,6 Z " fill="#A6A6A0" transform="translate(358,749)"/>
<path d="M0,0 L6,0 L4,2 L5,3 L16,4 L16,5 L-13,5 L-11,2 Z " fill="#A19E97" transform="translate(299,707)"/>
<path d="M0,0 L9,0 L9,1 L-4,3 L-10,3 L-13,4 L-16,4 L-19,5 L-26,4 L-29,1 Z " fill="#B0AEA8" transform="translate(339,785)"/>
<path d="M0,0 L2,2 L-2,4 L20,5 L20,6 L-16,6 L-16,4 Z " fill="#B7B5AF" transform="translate(328,708)"/>
<path d="M0,0 L1,0 L2,13 L4,26 L5,36 L2,32 L0,15 L-1,12 L-1,3 Z " fill="#B4B2AC" transform="translate(293,633)"/>
<path d="M0,0 L23,0 L23,1 L12,3 L7,4 L-1,5 L-1,2 Z M9,2 Z " fill="#9C9994" transform="translate(107,890)"/>
<path d="M0,0 L12,0 L8,4 L8,1 L2,2 L1,25 L0,25 L-1,10 L-2,8 Z " fill="#A9A9A4" transform="translate(380,165)"/>
<path d="M0,0 L2,4 L2,18 L-7,19 L-14,18 L-14,17 L0,16 Z " fill="#AAA8A2" transform="translate(865,734)"/>
<path d="M0,0 L13,2 L11,4 L3,4 L-1,2 Z " fill="#737067" transform="translate(307,707)"/>
<path d="M0,0 L11,1 L13,3 L5,4 L2,2 Z " fill="#98958D" transform="translate(313,707)"/>
<path d="M0,0 L12,0 L8,4 L8,1 L0,3 Z " fill="#A2A19C" transform="translate(380,165)"/>
<path d="M0,0 L4,1 L6,2 L6,0 L8,0 L8,4 L1,2 Z " fill="#B6B5AF" transform="translate(863,752)"/>
<path d="M0,0 L7,2 L7,4 L9,5 L3,4 L0,3 Z " fill="#89847C" transform="translate(306,704)"/>
</svg>
